<svg width="99" height="130" viewBox="0 0 99 130" fill="none" xmlns="http://www.w3.org/2000/svg">
<path d="M67.5252 3.27735C63.3173 1.48524 58.8264 0.724208 54.3478 0H0.100446L0.0266231 27.6304C0.0143193 29.8153 0.0512309 29.8521 2.25361 29.8521H2.2552C12.516 29.8644 22.7768 29.8766 33.0377 29.8521C34.8832 29.8398 36.7042 30.0117 38.5005 30.3063C55.935 33.2154 68.5956 48.1291 68.6202 65.7311V96.025C68.6202 98.6273 68.6448 98.6641 71.1671 98.6641H96.2914C98.666 98.6641 98.6783 98.6518 98.6783 96.246C98.6783 92.3339 98.6776 88.421 98.6768 84.5075V84.5005C98.6745 72.7484 98.6722 60.9911 98.6906 49.2339C98.7029 47.0244 98.6168 44.815 98.2723 42.6423C95.2456 23.948 85.095 10.7281 67.5252 3.27735Z" fill="#2B5068"/>
<path d="M33.4807 35.3511H18.8515V35.3388C17.3248 35.3388 15.798 35.3415 14.2713 35.3443C10.1998 35.3516 6.12833 35.3589 2.05687 35.3142C0.592719 35.302 -0.0101663 35.6948 0.00213744 37.2659C0.0636564 45.0972 0.0513526 52.9284 0.00213744 60.7597C0.00213744 62.2081 0.481985 62.6991 1.93383 62.6746C6.25073 62.6209 10.5676 62.6329 14.8845 62.645C15.5014 62.6468 16.1184 62.6485 16.7353 62.65C27.1812 62.6746 35.6831 71.1073 35.7077 81.4549C35.7077 82.824 35.7105 84.1932 35.7132 85.5624C35.7205 89.2136 35.7279 92.8648 35.6831 96.5159C35.6708 98.0257 36.1014 98.6886 37.7501 98.6886C45.6123 98.6395 53.4867 98.6517 61.3611 98.6886C62.776 98.7008 63.3297 98.1976 63.3297 96.7614C63.3092 90.8832 63.3077 85.0011 63.3062 79.1173C63.305 74.4104 63.3037 69.7025 63.2928 64.9945C63.2928 63.6811 63.1451 62.3554 62.9729 61.042C61.0043 46.5088 48.2084 35.3756 33.4807 35.3511Z" fill="#2B5068"/>
<path d="M9.88256 68.1246H16.3543C23.9089 68.1369 30.1715 74.0656 30.4053 81.6268C30.5028 84.7554 30.486 87.8839 30.4691 91.0125C30.4583 93.0148 30.4476 95.017 30.4668 97.0193C30.4668 98.2468 29.9746 98.7009 28.7935 98.6764C27.0494 98.6304 25.3054 98.6465 23.5613 98.6626C20.6545 98.6894 17.7478 98.7163 14.841 98.4554C6.67127 97.7312 0.101053 90.7469 0.039534 82.6333C0.0247695 80.9787 0.0336282 79.3241 0.0424869 77.6694C0.055775 75.1875 0.0690631 72.7056 0.00262268 70.2236C-0.0465924 68.4929 0.593204 68.0264 2.22961 68.1001C4.00057 68.1769 5.77153 68.1588 7.54662 68.1406C8.32436 68.1326 9.10289 68.1246 9.88256 68.1246Z" fill="#2B5068"/>
<path d="M96.7465 128.988C97.3963 129.074 98.0502 129.121 98.692 128.941V121.119L98.6881 121.11L98.6847 121.102C98.6798 121.092 98.6745 121.082 98.6692 121.071C98.6522 121.038 98.6355 121.005 98.6355 120.97C98.478 118.916 96.5406 117.32 94.5306 117.152C94.0333 117.11 93.538 117.11 93.0433 117.109C92.8313 117.108 92.6194 117.108 92.4075 117.105C92.2143 117.102 92.0487 117.102 91.9068 117.103C91.4717 117.105 91.2592 117.105 91.1574 117C91.0602 116.899 91.0639 116.701 91.071 116.314L91.071 116.313C91.0736 116.174 91.0766 116.01 91.0755 115.819C91.0634 114.023 90.9423 113.897 89.0897 113.905C88.6958 113.907 88.4999 113.908 88.4027 114.007C88.3066 114.104 88.3066 114.296 88.3066 114.678V127.098C88.3066 128.874 88.5085 129.067 90.3409 129.051C91.0473 129.043 91.0674 129.027 91.0674 128.329C91.0674 127.664 91.0679 126.998 91.0685 126.332V126.33C91.07 124.336 91.0715 122.342 91.0594 120.347C91.0553 119.888 91.2047 119.716 91.685 119.731C92.1373 119.747 92.5908 119.744 93.0449 119.741H93.046C93.41 119.739 93.7748 119.736 94.139 119.743C95.241 119.763 95.8504 120.367 95.8504 121.429C95.8524 122.423 95.8524 123.418 95.8524 124.413C95.8524 125.409 95.8524 126.404 95.8545 127.4C95.8545 127.663 95.8827 127.93 95.9231 128.188C95.9957 128.643 96.2904 128.925 96.7465 128.988Z" fill="#2B5068"/>
<path fill-rule="evenodd" clip-rule="evenodd" d="M13.0092 124.777C13.0092 125.124 13.0079 125.472 13.0065 125.819C13.0033 126.687 13 127.555 13.0173 128.423C13.0253 128.87 12.88 129.055 12.3997 129.051C11.4773 129.044 10.5549 129.046 9.63253 129.049C8.35515 129.052 7.07778 129.055 5.80041 129.035C3.01135 128.992 1.19099 126.753 1.25557 124.526C1.33513 121.917 1.31182 119.306 1.2885 116.694C1.28224 115.993 1.27599 115.292 1.27172 114.591C1.26768 114.07 1.41702 113.835 1.97806 113.893C2.14437 113.913 2.3122 113.908 2.48062 113.904C2.58593 113.901 2.69189 113.898 2.79742 113.901C3.62486 113.913 4.02041 114.297 4.04463 115.109C4.05271 115.391 4.05001 115.674 4.04731 115.955C4.04597 116.096 4.04463 116.236 4.04463 116.375C4.04463 117.081 4.05674 117.093 4.76712 117.093C5.14236 117.093 5.5176 117.091 5.89272 117.09C6.73617 117.086 7.57902 117.083 8.41995 117.097C11.0839 117.14 13.0051 119.033 13.0051 121.605V124.777H13.0092ZM10.2363 123.585V121.468C10.2322 120.39 9.59854 119.755 8.48453 119.743C7.9019 119.736 7.31843 119.738 6.7345 119.74C6.04415 119.742 5.35317 119.744 4.66218 119.731C4.17783 119.723 4.03252 119.9 4.0406 120.351C4.05357 121.281 4.05153 122.209 4.04949 123.138C4.04836 123.654 4.04723 124.17 4.04867 124.687C4.04867 125.718 4.69851 126.365 5.78023 126.385C6.50597 126.395 7.23295 126.394 7.96049 126.393H7.96269C8.54541 126.392 9.12848 126.391 9.71155 126.396C10.1233 126.4 10.2484 126.236 10.2403 125.859C10.2263 125.335 10.2298 124.809 10.2332 124.284C10.2347 124.051 10.2363 123.818 10.2363 123.585Z" fill="#2B5068"/>
<path fill-rule="evenodd" clip-rule="evenodd" d="M63.0919 123.751H63.093C63.3834 123.751 63.6736 123.75 63.9636 123.75L63.9677 123.746V123.778C64.285 123.778 64.6026 123.775 64.9204 123.773H64.9216C65.6947 123.767 66.4691 123.762 67.2411 123.789C67.8062 123.809 67.9797 123.609 67.9434 123.088C67.9165 122.701 67.9219 122.312 67.9272 121.924C67.9299 121.73 67.9326 121.536 67.9313 121.343C67.9111 119.257 66.2643 117.422 64.1089 117.183C62.8057 117.04 61.4973 117.064 60.1894 117.087C59.4965 117.1 58.8028 117.113 58.111 117.101C57.4087 117.089 57.3926 117.116 57.3926 117.826V124.754C57.3926 126.922 59.0192 128.718 61.2593 128.969C62.41 129.097 63.5661 129.076 64.7228 129.056H64.7279C65.298 129.046 65.8681 129.035 66.4379 129.043C67.9434 129.063 67.9434 129.047 67.9313 127.588C67.9232 126.636 67.568 126.291 66.5711 126.287C65.9744 126.284 65.3777 126.286 64.7813 126.287H64.7778C63.8826 126.29 62.988 126.293 62.0948 126.279C60.2704 126.252 60.0484 125.213 60.1534 123.997C60.1695 123.805 60.2583 123.742 60.4723 123.742C61.3442 123.754 62.2188 123.753 63.0919 123.751ZM62.2119 119.743L62.2078 119.751C62.3703 119.751 62.5333 119.749 62.6964 119.748C63.0232 119.744 63.3514 119.741 63.677 119.751C64.3148 119.771 64.9041 120.225 65.0938 120.806C65.1987 121.131 65.1261 121.319 64.7346 121.319C64.3483 121.316 63.9614 121.317 63.5742 121.318C62.9099 121.32 62.2436 121.321 61.5782 121.304C60.9727 121.284 60.4279 120.802 60.2381 120.222C60.1332 119.904 60.2301 119.743 60.5772 119.743H62.2119Z" fill="#2B5068"/>
<path d="M38.8582 128.4C38.8582 128.741 38.842 129.051 38.3617 129.043C37.6475 129.031 36.9329 129.041 36.2184 129.051H36.2148C34.8752 129.07 33.5361 129.089 32.2024 128.961C30.0954 128.757 28.3639 126.867 28.3598 124.817C28.3585 124.035 28.3594 123.253 28.3603 122.472C28.3621 120.909 28.3639 119.346 28.3477 117.783C28.3437 117.246 28.5253 117.089 29.0662 117.085C30.5354 117.069 31.2014 117.136 31.1368 119.034C31.0904 120.359 31.1023 121.689 31.1142 123.019C31.1189 123.541 31.1235 124.063 31.1247 124.585C31.1247 125.758 31.7584 126.373 32.9733 126.389C33.3004 126.394 33.6276 126.391 33.9545 126.388H33.9559C34.4469 126.384 34.9383 126.379 35.4273 126.401C35.944 126.42 36.1256 126.267 36.1175 125.746C36.0982 123.632 36.0995 121.519 36.1007 119.403V119.402C36.1011 118.873 36.1014 118.344 36.1014 117.814C36.1014 117.112 36.1175 117.101 36.8279 117.093C38.6685 117.073 38.8743 117.269 38.8743 119.038V123.374H38.8582V128.4Z" fill="#2B5068"/>
<path d="M78.8697 117.096C78.427 117.096 77.9844 117.097 77.5417 117.097V117.093C77.3271 117.093 77.1125 117.093 76.8979 117.093C76.7714 117.093 76.645 117.094 76.5185 117.094C75.4953 117.095 74.4722 117.097 73.449 117.085C72.9727 117.081 72.8112 117.261 72.8112 117.712C72.818 118.702 72.8155 119.692 72.8131 120.682C72.8097 122.052 72.8063 123.423 72.8274 124.793C72.8597 126.93 74.5468 128.714 76.7264 128.961C77.818 129.084 78.9132 129.065 80.0084 129.046C80.5492 129.037 81.0901 129.027 81.6305 129.035C83.0795 129.055 83.0795 129.039 82.9624 127.624C82.8979 126.82 82.5386 126.483 81.7112 126.483C81.2564 126.483 80.8017 126.483 80.3469 126.484H80.341C79.4335 126.485 78.5259 126.485 77.6184 126.483C76.2421 126.475 75.572 125.84 75.5801 124.495C75.5838 123.878 75.5979 123.261 75.6119 122.644C75.6283 121.924 75.6447 121.204 75.6447 120.484C75.6447 120.002 75.8061 119.837 76.3066 119.845C78.0705 119.869 79.8343 119.865 81.5982 119.853C81.7849 119.852 81.9463 119.854 82.0858 119.856C82.5101 119.861 82.7323 119.864 82.8477 119.755C82.9748 119.634 82.9727 119.378 82.9683 118.839L82.9683 118.838C82.9674 118.728 82.9665 118.607 82.9665 118.473C82.9665 117.508 82.5346 117.101 81.5255 117.097C80.6422 117.094 79.7588 117.095 78.8755 117.096H78.8697Z" fill="#2B5068"/>
<path d="M46.6874 122.024C46.6816 121.474 46.6758 120.925 46.7043 120.378C46.7326 119.849 46.5106 119.696 46.0061 119.731C45.6468 119.759 45.2755 119.751 44.9163 119.712C44.1776 119.63 43.8507 119.277 43.8588 118.559C43.8617 118.314 43.858 118.11 43.8549 117.94C43.8474 117.526 43.8435 117.313 43.948 117.205C44.0585 117.09 44.29 117.093 44.7661 117.099C44.9287 117.1 45.1197 117.103 45.3441 117.101L45.3813 117.1C46.6806 117.089 46.7081 117.089 46.6801 115.83C46.668 115.278 46.8739 115.101 47.4067 115.16C47.5555 115.177 47.706 115.173 47.8571 115.168C47.9436 115.165 48.0303 115.162 48.117 115.164C49.0373 115.172 49.4369 115.505 49.4329 116.395C49.4329 116.963 49.6387 117.148 50.1998 117.105C50.5751 117.077 50.9626 117.105 51.342 117.156C51.8788 117.226 52.1937 117.567 52.2542 118.069C52.2958 118.398 52.2892 118.735 52.2827 119.071C52.281 119.159 52.2793 119.247 52.2784 119.335C52.2784 119.669 52.0443 119.735 51.7618 119.735C51.5683 119.735 51.3749 119.737 51.1813 119.738C50.7934 119.741 50.4044 119.743 50.0141 119.735C49.6347 119.728 49.4409 119.845 49.445 120.249C49.4504 120.922 49.4494 121.595 49.4484 122.269C49.4471 123.11 49.4459 123.952 49.4571 124.793C49.4692 125.593 50.0585 126.146 50.9586 126.267C52.0564 126.416 52.2825 126.667 52.2865 127.737V128.055C52.2865 129.074 52.2623 129.098 51.2209 129.043C48.9001 128.918 47.0555 127.534 46.7568 125.554C46.6596 124.914 46.6847 124.256 46.7098 123.598C46.7212 123.299 46.7326 123 46.7326 122.703H46.6922C46.6922 122.477 46.6898 122.25 46.6874 122.024Z" fill="#2B5068"/>
<path d="M18.6555 118.223C18.6542 118.711 18.6529 119.2 18.6529 119.688V124.452C18.6569 127.11 20.5338 128.976 23.2784 129.051C23.935 129.067 24.2633 128.752 24.2633 128.106V127.632C24.2593 126.655 24.009 126.385 23.0121 126.279C22.0555 126.173 21.4419 125.522 21.4258 124.577C21.4231 124.285 21.424 123.99 21.4249 123.696C21.4254 123.549 21.4258 123.402 21.4258 123.256V115.223C21.4258 114.235 21.0787 113.905 20.0414 113.901C19.9535 113.9 19.8656 113.902 19.778 113.905C19.628 113.908 19.4787 113.912 19.331 113.898C18.8022 113.843 18.6367 114.066 18.6448 114.564C18.6621 115.782 18.6588 117.002 18.6555 118.223Z" fill="#2B5068"/>
</svg>
